<?xml version="1.0" encoding="UTF-8"?>
<!-- Generator: Adobe Illustrator 16.0.4, SVG Export Plug-In . SVG Version: 6.00 Build 0)  -->
<!DOCTYPE svg PUBLIC "-//W3C//DTD SVG 1.1//EN" "http://www.w3.org/Graphics/SVG/1.1/DTD/svg11.dtd">
<svg version="1.1" id="Livello_1" xmlns="http://www.w3.org/2000/svg" xmlns:xlink="http://www.w3.org/1999/xlink" x="0px" y="0px" width="397.94775px" height="158.26758px" viewBox="29.68359 29.32373 397.94775 158.26758" enable-background="new 29.68359 29.32373 397.94775 158.26758" xml:space="preserve">
<g id="Livello_1_1_">
</g>
<g id="Livello_4">
	<path fill="none" stroke="#050000" stroke-width="0.74809" stroke-miterlimit="3.86369" d="M34.00098,108.45703   c0-41.32031,33.49561-74.81787,74.81592-74.81787c41.32764,0,74.82471,33.49756,74.82471,74.81787   c0,41.3208-33.49707,74.81885-74.82471,74.81885C67.49658,183.27588,34.00098,149.77783,34.00098,108.45703L34.00098,108.45703z    M51.91064,108.48926c0-31.34814,25.40918-56.75781,56.75928-56.75781c31.35156,0,56.76123,25.40967,56.76123,56.75781   c0,31.34717-25.40967,56.75537-56.76123,56.75537C77.31982,165.24463,51.91064,139.83643,51.91064,108.48926L51.91064,108.48926z    M91.63965,57.48926c0.99658,2.14941-0.49316,4.72119-2.55957,5.55859c-2.14355,0.86914-4.91016,0.00195-6.17871-1.93115    M83.08057,61.35547c-0.67383,1.32275-0.46436,3.48242-2.15381,4.0498c-0.83252,0.27979-1.64453,0.4248-2.30371,1.05908   c-0.66406,0.63867-0.94971,1.54541-1.10449,2.43018c0.80762-1.2168,2.02295-1.97559,3.3877-2.43555   c0.64551-0.21729,1.35547-0.23633,1.83936-0.78125c0.47021-0.53027,1.02295-1.19678,1.79932-1.20117   c-0.11426,1.39941,0.13232,2.81006-0.07275,4.20459c-0.08154,0.55371-0.15039,1.14893-0.47754,1.62158   c-0.37988,0.54883-0.95459,0.91992-1.35449,1.45215c1.4502-1.0415,2.74561-1.6626,3.18799-3.53467   c0.15869-0.67188,0.74268-4.04639,2.03857-3.46094c0.80713,0.36475,0.85498,1.82617,1.30176,2.49756   c0.36084,0.54248,1.08398,0.8877,1.53076,1.37354c0.54248,0.59082,0.84082,1.31348,0.72607,2.12305   c0.22119-0.61768,0.68359-1.2915,0.4292-1.97266c-0.24609-0.6582-0.7373-1.17188-1.09619-1.76514   c-0.58252-0.96289-0.74512-2.54248,0.04102-3.44434c0.354-0.40527,1.11328,0.09668,1.56152-0.04541   c0.67725-0.21533,1.37939-0.28467,1.99805,0.13184c0.5708,0.38428,1.0459,0.9082,1.68506,1.1875   c0.80713,0.35254,1.70312,0.28271,2.56152,0.28271c-0.60645-0.30322-1.30176-0.46436-1.8291-0.91064   c-0.51074-0.43213-0.47021-1.07373-0.80176-1.60449c-0.69922-1.11865-2.48047-0.91309-3.59375-1.09961   c0.61328-1.31348,1.6582-1.21191,2.91309-1.12256c0.83447,0.05957,1.51855-0.13086,2.29883-0.40479   c0.94824-0.33252,1.92969-0.396,2.92285-0.48047c-1.62354-0.29199-3.17139-0.68799-4.83398-0.6416   c-1.5166,0.04199-2.54297-0.79346-3.91943-1.25439 M85.60205,73.56543c1.95459-0.23438,4.0332-0.75488,5.67725-1.87988   c0.7251-0.49658,1.23682-1.32764,2.03564-1.70703c0.92725-0.44043,2.49854-0.23584,3.37744,0.23096   c0.80176,0.42627,1.59619,1.16064,1.55762,2.14014c-0.02637,0.68506-0.57178,1.31494-0.4624,2.02002   c0.05566,0.3584,0.43945,0.34814,0.63281,0.60498c0.20459,0.27148,0.07324,0.625-0.01611,0.91162   c-0.29248,0.93799,0.31641,1.55225,1.20215,1.81592c1.77441,0.5293,2.56982-1.22754,3.63818-2.24854   c0.66406-0.63428,1.55664-0.9624,2.40186-0.44189c0.43994,0.271,0.72949,0.66406,0.93066,1.13184   c0.16211,0.37744,0.75293,0.8457,0.69287,1.27393c-0.06543,0.46533-0.46289,0.95459-0.6543,1.38184   c-0.20996,0.46777-0.36426,0.95801-0.41602,1.47021c-0.13086,1.29004,0.42285,2.46387,0.62402,3.71143   c0.34619,2.15186-2.27148,4.01514-3.69824,5.15039c1.18604-2.19385,2.32715-4.50684,1.20752-6.97998   c-0.13965,0.59912-0.1626,1.22461-0.37354,1.80664c-0.25977,0.71729-0.67676,1.43066-1.06689,2.08398   c-0.77881,1.30322-1.97168,2.15869-3.33057,2.78955c1.10986-1.36816,1.96729-2.93848,2.53271-4.60693   c0.27197-0.80273,0.54102-1.91846,0.37695-2.76807c-0.11963-0.61816-0.77588-0.69385-1.1665-0.2627   c-0.52295,0.57715-0.45947,1.46045-0.67188,2.16406c-0.2666,0.88184-0.72168,1.69824-1.25244,2.44678   c-0.92725,1.30811-2.40967,2.08447-3.98584,2.27295c1.5-1.11426,2.68994-2.58545,3.53076-4.25   c0.37939-0.74951,1.03418-1.93799,0.77295-2.81201c-0.19287-0.64502-1.15869-0.04297-1.39404,0.26025   c-1.94727,2.5083-4.78174,5.92578-8.38232,5.09375c1.98438-0.73242,3.58594-2.14502,5.09717-3.58008   c0.7085-0.67236,1.45166-1.37549,1.91406-2.24854c0.51367-0.97021-0.47559-1.50928-1.27393-1.01562   c-0.76807,0.47559-1.24854,1.29199-1.9209,1.87939c-0.81445,0.71143-1.76758,1.23828-2.68799,1.79639   c-1.84912,1.12012-4.11816,1.49609-6.20117,0.8584c2.4707-0.5625,4.9043-1.68408,6.95605-3.17188   c0.67822-0.49219,2.44873-1.65869,2.37695-2.62402c-0.1123-1.51465-4.88135,1.65332-5.38818,1.85986   c-2.6499,1.08105-5.74609,1.51807-8.56689,0.97266c2.9502-0.62402,5.85449-1.49365,8.57812-2.80127   c1.34521-0.646,2.48291-1.64795,3.8374-2.27637c0.5332-0.24756,1.48145-0.21289,1.83545-0.75195   c0.20264-0.30859-0.23535-0.62158-0.45752-0.74365c-0.5874-0.32373-1.29785-0.20654-1.90283-0.00049   c-1.41553,0.4834-2.68994,1.3584-4.05225,1.96973c-3.00439,1.34863-5.89795,1.45996-9.0415,0.58594   c4.11035-0.32666,8.04688-1.62842,11.64795-3.61475C88.98633,73.62646,87.29248,73.73389,85.60205,73.56543   c0.20117-0.02393,0.99658,0.02441,1.14844-0.07617C86.49219,73.66016,85.88818,73.59375,85.60205,73.56543   C87.58398,73.32764,86.4707,73.65186,85.60205,73.56543z M89.16895,76.02393l-0.50195,0.65332l-0.20117,0.35205l-0.20117,0.30029   l-0.15381,0.40137l-0.14844,0.40332l-0.15186,0.60156 M88.21533,80.49316c0.76709,0.5791,1.6665,0.83203,2.60986,0.9541    M92.88232,82.15137c0.80273,0.11426,1.60205,0.20068,2.41357,0.20068 M97.30078,82.60254   c0.79102,0,1.49072-0.16797,2.26123-0.30029 M100.61865,83.75684c0.65479-0.16455,1.21289-0.38818,1.75146-0.80322    M103.77734,84.45947c0.46631-0.12402,0.61523-0.20752,0.95605-0.54834 M90.42236,73.51416   c1.35205-0.62354,2.84717-1.89307,4.4292-1.69434c1.55615,0.1958,1.25439,2.91211,2.85449,2.74902 M94.59326,75.42188   c1.72803-0.15381,2.04053,2.30469,3.81494,1.65625 M94.18896,78.63574c0.49756-0.37061,1.33496-0.68848,1.90918-0.30176   c0.24023,0.16211,0.23535,0.48389,0.37988,0.70898c0.22168,0.34766,0.57666,0.58105,0.77539,0.94727   c0.46094-0.63672,1.16504-1.21045,1.98584-0.85498c0.69971,0.30322,0.57178,1.15479,0.47314,1.76221   c0.30273-0.7876,0.57031-1.50781,1.54443-1.50781c1.00195,0,1.09717,1.10547,1.21875,1.8584   c0-0.83447-0.20605-2.09521,0.38721-2.78271c0.40576-0.46973,0.99463-0.03906,1.13428,0.43408   c0.27588,0.93457,0.06689,1.98535,0.28613,2.94971 M103.87744,78.58545c0.85547-1.06494,1.69043-1.47217,2.76562-0.50244    M137.29297,73.55713c-2.10986-0.24707-4.45898-0.83545-6.12793-2.21875c-0.79248-0.65723-1.26074-1.44092-2.36914-1.52539   c-1.27295-0.09766-2.32373,0.06104-3.3291,0.89502c-0.72461,0.60107-0.90918,1.26318-0.66846,2.13379   c0.19385,0.70068,0.60693,1.45996-0.0498,1.94629c-0.74707,0.55371,0.10791,1.34375-0.2251,2.02686   c-0.32764,0.67285-1.39746,1.07129-2.10596,0.97803c-1.52588-0.2002-1.95068-2.05762-3.18066-2.74219   c-0.73633-0.40967-1.71045-0.33057-2.32227,0.2666c-0.51807,0.50537-1.48096,1.79248-1.1582,2.521   c0.18506,0.41748,0.52051,0.74072,0.72461,1.146c0.25781,0.51172,0.29004,1.12451,0.27295,1.68652   c-0.01709,0.55908-0.07031,1.1543-0.23096,1.69238c-0.16309,0.54834-0.48145,1.09375-0.45898,1.68164   c0.03564,0.95654,1.14795,2.33984,1.77344,3.01904c0.91895,0.99756,2.15527,1.39307,3.41797,1.76758   c-1.01025-0.81738-2.18359-1.56982-2.81299-2.74854c-0.66602-1.24609-0.44434-2.70117,0.12256-3.93799   c0.13721,0.59912,0.16016,1.22412,0.37012,1.80566c0.25879,0.71826,0.67871,1.43018,1.06934,2.08447   c0.77832,1.30371,1.96826,2.16016,3.33057,2.78613c-1.10742-1.35938-1.94727-2.92578-2.52393-4.5791   c-0.30371-0.86963-0.4585-1.79688-0.3667-2.71777c0.06543-0.65723,0.69629-0.83008,1.12793-0.3501   c0.51807,0.5752,0.51416,1.48633,0.70605,2.19482c0.23682,0.87158,0.71826,1.69727,1.2373,2.42822   c0.92773,1.30762,2.40918,2.08936,3.9873,2.27148c-1.59326-1.17188-2.82373-2.75244-3.67188-4.53174   c-0.34766-0.72998-0.87402-1.64893-0.63721-2.4873c0.22266-0.78955,1.04492-0.09375,1.36523,0.22705   c2.30029,2.30566,4.56445,5.979,8.41553,5.0835c-1.98584-0.73242-3.58203-2.14746-5.09668-3.58008   c-0.70898-0.6709-1.45703-1.37207-1.91602-2.24707c-0.51025-0.97217,0.47949-1.51172,1.27832-1.0166   c0.76758,0.4751,1.24561,1.29297,1.91699,1.88086c0.81299,0.7124,1.76562,1.23975,2.68799,1.79395   c1.854,1.1123,4.11914,1.50635,6.20508,0.86084c-2.47266-0.56152-4.90381-1.68457-6.95801-3.17041   c-0.67969-0.49121-2.45166-1.65869-2.37939-2.625c0.11279-1.51367,4.88086,1.64746,5.39111,1.85498   c2.65479,1.08203,5.73633,1.51953,8.56299,0.97949c-3.01074-0.64209-6.13818-1.49902-8.86914-2.9541   c-1.12598-0.59961-2.19678-1.62354-3.40137-2.0376c-0.59082-0.20312-1.56592-0.31396-1.96729-0.84619   c-0.64307-0.854,1.76465-0.91064,2.11377-0.81738c1.40039,0.37451,2.67529,1.2915,3.97998,1.90527   c2.97998,1.40088,6.18311,1.61279,9.34766,0.72949c-4.1084-0.32812-8.05029-1.62207-11.64795-3.61328   C133.90918,73.6167,135.60254,73.72607,137.29297,73.55713c-0.2041-0.02393-0.99219,0.02734-1.14795-0.07373   C136.40576,73.65234,137.00537,73.58594,137.29297,73.55713C135.31299,73.3252,136.42578,73.64355,137.29297,73.55713z    M133.72852,76.01807c0.66162,0.86133,1.09131,1.65332,1.35596,2.71094 M134.68652,80.48584   c-0.77295,0.57617-1.66943,0.82959-2.61572,0.95605 M130.01465,82.14502c-0.80176,0.1123-1.60107,0.19873-2.41113,0.19873    M125.59668,82.5957c-0.79199,0-1.49072-0.16602-2.26172-0.30273 M122.28125,83.74902   c-0.66357-0.16211-1.20947-0.39258-1.75977-0.80225 M119.1167,84.4541c-0.46387-0.12744-0.61475-0.21436-0.95508-0.5542    M132.47266,73.50635c-1.34766-0.62256-2.8125-1.86816-4.38867-1.69775c-1.59277,0.17285-1.28271,2.90918-2.89209,2.75342    M128.30762,75.41309c-1.72852-0.15381-2.04736,2.30371-3.81641,1.65771 M128.70654,78.63086   c-0.49561-0.375-1.33301-0.68945-1.90674-0.30176c-0.24023,0.1626-0.23633,0.4834-0.38086,0.7085   c-0.22217,0.34668-0.5752,0.58057-0.771,0.94775c-0.46582-0.63428-1.16602-1.21582-1.99023-0.85693   c-0.69824,0.3042-0.57373,1.15186-0.47314,1.75928c-0.30273-0.78662-0.57178-1.50586-1.54443-1.50586   c-1.00195,0-1.10303,1.104-1.21631,1.85938c0-0.83398,0.20508-2.09375-0.38916-2.77979   c-0.40674-0.46875-0.99854-0.04443-1.13916,0.43164c-0.27539,0.93311-0.06641,1.98486-0.28125,2.94824 M119.01855,78.57715   c-0.8501-1.06836-1.69434-1.46191-2.76611-0.50195 M105.53613,61.26025c0.14795-1.68848-0.4751-2.99414-1.80566-4.01709   c0.58154-0.07031,1.20654-0.31885,1.75391,0.02197c0.43213,0.26904,0.63281,0.63525,1.19873,0.54248   c0.37891-0.06201,1.44189,0.21143,1.52002-0.34766c0.06445-0.46338,0.16064-1.0918,0.79785-1.13086   c0.57275-0.03516,0.72607,0.62109,0.93311,1.00342c0.25342,0.46729,0.83838,0.45654,1.30078,0.54785   c0.68604,0.13623,0.77051-0.27832,1.29639-0.56982c0.521-0.28906,1.14648-0.09521,1.69531-0.01709   c-0.50537,0.45117-1.06885,0.88184-1.37012,1.50732c-0.36865,0.76514-0.37061,1.63525-0.48877,2.45947   C110.34619,59.69531,107.68848,60.36816,105.53613,61.26025c0.03369-0.38281,0.29834-1.10938,0.82324-0.979   C107.03711,60.44922,105.63428,61.21973,105.53613,61.26025C105.68408,59.57178,107.68359,60.37012,105.53613,61.26025z    M105.58887,60.00732c0.46045-0.15625,0.86426-0.44971,1.33936-0.56787c0.54639-0.13574,1.11572-0.11621,1.67236-0.16455   c1.26904-0.10938,2.50586,0.25049,3.66602,0.73242 M92.98193,68.34229c1.64941,0.47168,3.30176,1.11816,5.04736,0.85449   c0.65918-0.09961,2.84326-0.67773,2.39551-1.7793c-0.2749-0.67627-1.8418-0.36719-2.36182-0.23682   c-0.8042,0.20117-1.51416,0.67334-2.32715,0.8584C94.83252,68.24463,93.90332,68.28564,92.98193,68.34229   c0.03857,0.01123,1.02539,0.15674,0.97852,0.08301C93.84229,68.23975,93.13281,68.33301,92.98193,68.34229   C94.42139,68.75391,94.37939,68.25635,92.98193,68.34229z M98.45508,66.18311c0.78857-0.83301,1.94385-1.29443,3.06055-0.86426   c1.31201,0.50537,2.66455,0.87598,4.07324,0.9624c-1.08105,0.38525-2.1543,0.50391-3.28125,0.25098   C101.04297,66.24902,99.74219,66.26074,98.45508,66.18311C99.26367,65.3291,99.49268,66.24561,98.45508,66.18311   C99.26172,65.33105,99.62988,66.25391,98.45508,66.18311z M107.94922,65.67969c-1.12549,0-2.00684-0.2832-2.97559-0.83154   c-0.96045-0.54395-1.92236-0.61865-2.90186-0.06934c0.22412-1.15918,0.91992-2.29248,2.2085-2.32422   c0.92529-0.02246,2.3335,0.19727,2.86426,1.06592c0.27197-0.60059,0.55713-1.43359,1.26904-1.63428   c0.78662-0.22217,1.72266,0.20068,2.44043,0.4917c1.66748,0.67627,3.43213,1.76025,5.28271,1.09326   c-0.84521,1.6333-2.65869,1.60059-4.22119,1.2041c0.15674,0.9209,0.47168,1.66406,1.39355,2.01758   c0.91455,0.35107,2.01465,0.51367,2.97998,0.29346c-0.79297,1.56592-2.30908,1.44531-3.6709,0.70117   c-0.30322,0.51221-0.40869,1.44971,0.22705,1.76807c0.36182,0.18115,0.78857,0.0918,1.14844,0.2832   c0.43408,0.23096,0.82764,0.56934,1.33887,0.60938c-0.93115,0.72607-1.75439,0.38916-2.76221,0.05225   c0.10059,0.66943,0.03711,1.41553,0.36719,2.03076c0.41357,0.77051,1.54297,0.31299,2.04541-0.12451   c-0.32324,0.96191-1.21387,1.69434-2.2627,1.55908c0.13184,1.45557,1.40039,1.95996,2.66309,2.21094   c-0.90186,0.37354-1.89111,0.5332-2.86182,0.40088c0.23193,1.56006,1.90234,0.5415,3.00928,1.10547 M115.83301,83.9585   c-0.73633,1.04932-1.68262,2.01855-2.03809,3.2832c-0.41602,1.48145-0.06885,3.06201-0.12402,4.57227   c-0.04639,1.28223-0.30811,2.64209,0.8457,3.53857c1.10547,0.8584,2.62158,1.05908,3.97998,1.05908   c-1.37061,1.1377-3.39111,1.15625-4.62158-0.20068c-0.27783,1.38428,0.38477,2.70996,1.39795,3.62451   c1.08105,0.97607,2.66162,1.04395,4.02588,0.7959c-0.82373,0.74902-1.93311,1.46289-3.09082,1.41797   c-1.19824-0.04639-2.05713-1.09277-2.83887-1.87256c-0.19238,2.71289,1.49316,4.88721,4.02393,5.72461   c-1.89648,0.54883-3.7749-0.17627-5.02539-1.65576c-0.99414,1.83301-2.94922,2.64453-4.97266,2.51416   c2.56641-1.20312,4.00732-3.50195,4.3208-6.28076c-0.58545,0.64355-1.12256,1.20996-2,1.4126   c-1.03955,0.23975-2.25732,0.00342-3.07275-0.71045c1.51465-0.08057,3.07666-0.55273,4.20215-1.60889   c0.8877-0.83252,1.6582-2.48975,1.27148-3.7124c-0.49316,0.54834-0.97949,1.16357-1.69775,1.42236   c-0.81738,0.29492-1.71826,0.29639-2.57422,0.23682c1.13867-0.64307,2.23438-1.42139,2.97217-2.52197   c0.7793-1.1626,0.71631-2.65039,0.52246-3.9751c-0.2041-1.39697-0.85693-2.71533-1.7959-3.76367   c-0.91748-1.02393-2.05615-1.89551-2.6001-3.19873 M107.44482,77.28027c0.79346-0.35547,1.60742-0.21533,2.44043-0.14111   c0.65234,0.05811,1.19824-0.24902,1.17578-0.96143c-1.00732,0.11084-1.91895-0.00586-2.81299-0.50342   c1.32031-0.07959,2.2417-0.72803,2.96484-1.80859c-1.06494,0.12012-2.10938,0.14355-2.96484-0.604   c1.59863-0.12939,2.69873-0.80225,3.1167-2.40869c-0.98779,0.56152-1.82764,0.64941-2.86377,0.15088   c1.14453-0.41602,2.69922-0.80176,2.75879-2.26025c-0.54248,0.21582-1.11426,0.31201-1.6543,0   c0.66992-0.40137,1.78906-1.18945,1.63086-2.10547c-0.15674-0.90576-1.58203-0.54248-2.14404-0.27734   c-0.94922,0.44775-0.90723,1.73096-1.82324,2.21582c-0.84229,0.44629-1.85693,0.24658-2.73682,0.56934   c-0.07275-1.57227,1.85986-1.57812,2.77002-2.35596c1.00439-0.85791,1.58203-2.27051,3.1582-1.81299   c-0.16162-1.05078-1.75488-2.22656-2.56396-1.104c0.48779,0.32666,1.01855,0.58154,1.50781,0.90576 M107.64795,85.46436   c-1.01367,1.86377-2.10938,3.79688-2.32959,5.94678c-0.22852,2.23291,0.3374,4.41309-0.78857,6.49512   c-0.6416,1.18652-1.75732,2.86182-3.25195,1.92285c-0.82812-0.51953-1.59229-0.98047-2.57617-0.55762   c-0.78809,0.33838-1.39014,0.91553-2.30469,0.85742c0.75635,0.33594,1.36768,0.44971,2.14893,0.1123   c0.76221-0.33008,1.4917,0.0166,2.02002,0.58887c-0.37109,0.12402-0.78857,0.17529-1.1001,0.43262   c-0.25195,0.20801-0.4209,0.49561-0.6748,0.70068c-0.33643,0.27148-0.79004,0.22705-1.16309,0.41309   c-0.43066,0.21484-0.55322,0.7124-0.72656,1.11768c1.41699-0.44238,2.729-1.40479,4.26758-1.35742   c-0.65234,0.78369-2.22168,1.33984-2.43359,2.43604c-0.15381,0.79541,1.06152,0.11475,1.26367-0.13232   c0.7124-0.87061,2.03418-0.68164,2.77588-1.60107c0.53223,1.06396,1.51904,0.87549,2.51318,1.04395   c1.15625,0.1958,1.93506,1.11621,2.50977,2.06934c0.12891-1.0542,0.18213-2.28369-1.00342-2.73242   c-0.59131-0.22363-1.27246-0.21533-1.78223-0.63037c-0.44824-0.36475-1.01514-0.41748-1.43408-0.75342   c0.83691-0.77979,1.64355-1.67383,1.98145-2.7915c0.35205-1.1626,0.45459-2.41699,1.06445-3.49023   c0.54102-0.95264,1.53809-1.49854,2.32715-2.21484c0.97656-0.88721,1.60059-2.09717,1.95801-3.354 M115.07959,85.16309   c0.77539,0.85156,1.4668,1.7749,2.23535,2.63184c0.69678,0.77686,1.55469,1.44434,2.09277,2.35059   c0.57129,0.96094,0.46484,2.06982,0.71924,3.11963c0.23145,0.95605,1.32324,1.32812,1.83838,2.1377   c0.66309,1.04102,1.854,5.34033,3.65186,3.78662c0.74902-0.64746,1.8418-1.17871,2.84375-0.89209   c0.87598,0.25098,1.53906,0.9917,2.50635,0.92676c-0.75537,0.33838-1.37109,0.46045-2.15088,0.11377   c-0.76123-0.3374-1.48926,0.01904-2.0166,0.58936c0.37109,0.12451,0.78857,0.17676,1.10059,0.43359   c0.25146,0.20703,0.42139,0.49365,0.6748,0.69873c0.3374,0.27295,0.79199,0.22705,1.1665,0.41309   c0.42969,0.21387,0.55176,0.71094,0.72461,1.11475c-1.42334-0.43018-2.72949-1.40088-4.27002-1.35498   c0.65283,0.7832,2.22021,1.34277,2.43311,2.43799c0.1543,0.7915-1.06201,0.11035-1.26221-0.13574   c-0.71143-0.87207-2.03857-0.67627-2.77832-1.60059c-0.52832,1.06689-1.51904,0.87744-2.51221,1.0459   c-1.15674,0.19629-1.93311,1.11816-2.50928,2.06982c-0.12744-1.05469-0.18311-2.28564,1.00439-2.7334   c0.5918-0.22314,1.27344-0.21484,1.7832-0.63184c0.44678-0.36572,1.01562-0.41699,1.43311-0.75488   c-0.97754-0.85693-1.81445-1.87402-2.48096-2.98926c-0.56348-0.94385-0.91357-2.04541-1.66016-2.87158   c-0.83984-0.92969-2.22412-0.8833-3.17432-1.74121c-1.07617-0.97217-2.04199-2.03613-2.69873-3.3418 M66.16895,90.93896   c1.64502-0.17969,3.33984-0.3418,4.76123,0.67676c1.31055,0.93896,2.27344,2.36523,3.77344,3.03711   c-0.58301,0.44092-1.1543,1.02002-1.10205,1.80957c0.02539,0.38574,0.20947,0.7334,0.32861,1.09424   c0.17285,0.52051,0.05811,1.08057,0.02637,1.6123c-0.03809,0.64453-0.1377,1.35352,0.10107,1.97266   c0.35645,0.92432,1.37598,0.57764,2.12842,0.55127c-0.729,0.15088-1.49902,0.17529-2.05225,0.74268   c-0.65918,0.67578-1.01074,1.47412-1.78369,2.06445c-1.47314,1.12549-3.21826,1.96631-5.02734,2.37988   c1.74756,0.14062,3.55908,0.45508,5.26514-0.11768c1.29004-0.43262,2.60693-1.19971,3.46826-2.27002   c0.44922-0.55859,0.67627-1.14453,0.53906-1.86475c-0.08154-0.42773-0.23145-0.81445-0.17676-1.25781   c0.05322-0.43018,0.20605-0.84668,0.19678-1.28467c-0.00879-0.44287,0.06201-1.23828-0.36719-1.52539   c-0.65137-0.43506-1.47705-0.34961-2.21729-0.44336c0.69531,0.03369,1.80615,0.32275,2.16113-0.51221   c0.47754-1.12451-0.24902-2.38037-1.24561-2.93359c1.11035-0.00928,1.30957-1.0625,1.01562-1.96338   c-0.32764-1.00391-1.41699-1.62793-2.29102-2.09473c-1.17334-0.62646-2.45166-0.99902-3.78418-1.05127   C68.45264,89.50439,67.33203,90.18652,66.16895,90.93896c0.1665-0.01807,0.99463-0.05469,1.06592-0.30176   C67.2915,90.44141,66.21191,90.91113,66.16895,90.93896C67.69629,90.77197,67.26172,90.23193,66.16895,90.93896z M75.0498,91.29053   c0.12305-1.53662,1.08105-2.7085,1.91406-3.93311c0.104,0.41357,0.19385,0.84619,0.47461,1.18359   c0.24121,0.29053,0.64404,0.60254,0.64404,1.01904c0,0.58203-0.36816,1.96045-0.75586,2.4502   c-0.67188,0.8501-1.21533-0.31006-1.25439-0.85889c-0.07422-1.03223,0.7251-1.74365,1.47168-2.31494 M77.30322,92.1709   c1.48047,0,2.82617-0.71924,4.04297-1.49316c1.1499-0.73242,2.30615-1.49805,2.98877-2.71777   c0.53223-0.95117,1.92529-2.18994,2.95264-1.11133c0.41016,0.43018,0.89795,0.64844,1.25781,1.14111   c0.35938,0.4917,0.69971,0.48535,1.22949,0.63965c0.4292,0.125,0.40332,0.79834,0.54883,1.13721   c0.26318,0.61133,0.38086,1.08838,0.10742,1.73242c-0.16602,0.39062-0.66064,1.05957-1.13672,1.06787   c-0.38281,0.00635-0.56104-0.55029-0.75439-0.79492c-0.42383-0.53564-1.25293-0.14307-1.78857-0.49658   c-0.53857-0.35547-0.62109-0.88135-0.3667-1.44873c0.67725-1.51074-1.65088-1.52637-2.53174-1.05029 M88.98193,92.58838   c-0.11865,0.75977-0.36182,1.51025-0.93018,2.05615c-0.53174,0.51025-1.16699,0.94531-1.39111,1.68604   c-0.53418,1.76025-0.25635,3.70264-1.0415,5.39697c-1.27783,2.75586-4.74609,2.60059-7.30273,2.40479 M77.78271,101.27393   c0.70703-0.0376,1.04443-0.78662,1.77295-0.75293c1.01758,0.04688,1.97754-0.48877,2.57324-1.29492   c1.25732-1.70166,0.72314-3.5752-0.89014-4.72217c0.33154-0.33252,0.68555-0.63721,1.07666-0.89746 M81.65527,99.854   c-2.44922-0.80908-1.84424-3.78662-0.4165-5.28906 M81.47754,99.61523c-0.29395-0.76953-0.56396-1.55908-0.6377-2.38477   c-0.07373-0.82324,0.26709-1.60156,0.45605-2.38574C81.86865,96.4375,82.12793,97.99902,81.47754,99.61523   C81.46582,99.58496,81.26807,99,81.48047,99.00732C81.69238,99.01465,81.49414,99.57373,81.47754,99.61523   C81.18213,98.84131,81.79932,98.81543,81.47754,99.61523z M114.69336,107.521c1.43115-0.58887,2.8335-1.24316,4.23193-1.90527   c1.39404-0.65967,2.78027-1.39697,4.31494-1.66699c3.13721-0.55176,6.27637,0.18994,9.34424,0.80029   c1.26465,0.25146,2.6958,0.48389,3.71191,1.34082c0.83252,0.70215,1.65283,1.92871,2.90186,1.71826   c1.11475-0.18799,1.87549-0.99609,3.0791-0.78467c1.33594,0.23438,2.60303,1.07422,3.68262,1.85889   c3.99219,2.90137,5.15576,7.99316,4.04346,12.62988c-1.14209,4.75977-5.32422,7.94727-9.74854,9.52539   c-1.01709,0.36328-2.06006,0.63281-3.11426,0.86328 M86.82861,95.86279c2.09521,0.62939,2.75928,3.23096,3.18701,5.10059   c0.12012,0.5249,0.0625,1.11719,0.27393,1.61621c0.24658,0.58252,0.96387,0.68311,1.49316,0.86719   c1.27246,0.44238,2.50049,1.79199,3.86035,1.8291c3.05176,0.08301,6.34717-0.75098,9.17822,0.71777   c2.75586,1.42969,5.93994,1.58105,8.98291,1.58691 M134.04639,129.70557c1.4292,0.20312,2.84229,0.40234,4.25732,0.00586   c1.44824-0.40625,2.88623-1.01758,4.22705-1.69922c2.19092-1.10938,4.12256-2.78711,5.14941-5.05469   c1.67627-3.70508,1.38135-8.75-1.50195-11.79492c-1.52344-1.60938-3.94434-2.76611-6.05859-1.62451   c-0.67725,0.36621-1.58936,1.06787-0.93994,1.87451c0.71191,0.88281,1.91895,1.07422,2.46631,2.14258   c1.29053,2.51758,0.46191,6.05078-0.31641,8.5957c-0.63428,2.07422-1.31934,4.8125-3.13916,6.19727   c-1.82031,1.38477-4.53223,1.0332-6.646,1.66797 M133.6626,129.65283c1.48242,0.82812,2.73975,1.94336,4.32959,2.58398   c0.48291,0.19531,1.16602,0.51562,1.17334,1.12891c0.00635,0.56641-0.09033,1.46094-0.50732,1.88867   c-1.01465,1.04297-2.74365,0.88867-4.06445,0.8125c-0.72021-0.04102-1.4585-0.09961-2.16943,0.05859   c-0.92236,0.20508-1.55176,0.88086-2.35791,1.31836c-1.14111,0.61914-3.54736,1.49609-4.6582,0.4375   c-0.86719-0.82617-0.83789-2.73633,0.48193-3.09961c0.75488-0.20898,1.55078-0.00781,2.31299-0.22656   c0.92822-0.26562,1.62451-0.91992,2.47998-1.32617c1.67773-0.79883,3.53857-0.3418,5.28857-0.10938 M131.95508,132.66455   c-1.27881,0-2.55762-0.01953-3.83594-0.05273c-0.98193-0.02734-2.16504-0.11328-2.90625-0.84375   c0.0376,0.02539,0.0752,0.04883,0.11279,0.07422c-3.13086-1.58594-6.01855-9.56641-10.49756-6.10352   c0.16211-0.71875,0.30957-1.46289,1.02002-1.83789c0.67969-0.35742,1.51562-0.32031,2.24658-0.16992   c-0.16309-2.01758-2.23584-2.63867-3.81689-1.75977c0.10645-1.55859,1.48926-1.94336,2.8125-1.56055   c-0.4707-1.69531-2.47705-3.2832-3.76758-1.35352c0.06494-0.72852,0.08252-1.44727,0.77588-1.87305   c0.56445-0.34766,1.3291-0.4043,1.93652-0.13867c-0.51367-1.52344-2.42334-2.42383-3.6167-1.05078   c0.08789-1.62891,1.37305-2.38086,2.86133-1.75586c-0.34131-1.54883-1.86816-2.01367-3.2793-2.01367   c1.01318-0.74219,1.90137-1.08984,3.15576-0.66211 M113.22363,105.979c0.97852,0.97852,1.88965,1.7793,2.53857,3.01318   c0.61182-0.43506,1.4209-1.12939,2.23193-0.88037c-1.19629,0.8999-1.89307,1.96143-1.8208,3.48828   c0.70654-0.4082,1.3125-0.7373,2.12061-0.38867c-0.90918,1.1582-1.7124,2.17188-1.36816,3.72852   c0.61426-0.94922,1.41309-1.48047,2.56543-1.16992c-1.24609,1.17383-2.09863,2.31836-1.86133,4.08008   c0.82324-1.0332,1.40527-1.19727,2.60303-0.58789c-0.92822,0.35938-2.43555,1.4375-2.04688,2.64844   c0.12695,0.39648,0.66602,0.14062,0.92285,0.06445c0.69092-0.20117,1.30664,0.17773,1.78809,0.64062   c-0.56982,0.08594-1.17871,0.0957-1.46777,0.68555c-0.30469,0.61914-0.14062,1.4082,0.1582,1.99805   c0.34717,0.6875,0.99951,1.125,1.57275,1.60547c0.71338,0.59961,1.37646,1.25586,2.06299,1.88477 M113.27148,106.05518   c-0.16699-0.17676-0.33447-0.35352-0.50146-0.53027c0.24414,1.3374,1.2959,2.24121,1.58301,3.56689   c-0.93945-0.30225-1.80908-0.45996-2.68799,0.12451c1.44775,0.20361,2.74512,0.83301,3.33936,2.23145 M88.41357,114.38525   c-0.36035-0.7207-0.74219-1.44141-0.47705-2.26367c0.33545-1.03906,0.92773-1.9873,1.26074-3.03613   c0.6416-2.02002,0.99365-4.12939,1.07324-6.24609 M89.16895,112.42822c1.08984-1.55078,2.05811-3.19482,2.396-5.08496   c0.17627-0.9873,0.40332-2.99854,1.76953-2.99854 M77.7207,108.70947c0.11816,1.35742,0.12256,2.72656,0.34082,4.07422   c0.22998,1.42188,0.83154,2.74219,1.41943,4.04688c0.62256,1.37891,1.28711,2.74023,1.94336,4.10547   c0.61035,1.26953,0.97559,2.64062,1.59912,3.90625c0.52539,1.06641,1.04736,2.16211,1.84473,3.05664   c0.90674,1.01758,2.13623,1.6875,3.36328,2.24219c2.42236,1.09375,5.18896,0.9082,7.51514,2.21875   c-0.49512,0.5332-0.87354,1.21484-1.51758,1.5918c-0.73926,0.43359-1.68311,0.08789-2.37793,0.62891   c-0.93555,0.72852-1.00977,2.37305-0.23535,3.24023c1.05908,1.18555,2.83301,0.15625,3.97754-0.32617   c1.22461-0.51758,2.81104-1.13867,3.13867-2.5918 M95.71875,132.33838l0.83057-0.30078c0,0,2.68555-0.83203,5.79883,1.2832    M102.07178,133.99658c2.03223-3.54688-4.55615-4.53125-6.23486-5.89844c-2.36328-1.92188-3.25488-5.16992-3.48486-8.08789    M97.93018,136.25635c1.56201-0.16211,3.04395,0.25586,4.50635,0.75781c1.05957,0.36328,2.48779,1.06055,3.48828,0.2207   c0.90625-0.76172,1.1333-2.17188,1.51074-3.30469c0.53857-1.61523,1.01025-3.24609,1.39062-4.90625   c1.11572-4.875,2.64746-12.50781-1.96338-16.1543 M95.08057,133.07861c-1.80566,0.01172-3.60596-0.18945-5.24121-1.00586   c-0.80566-0.40039-1.59424-0.84375-2.43896-1.16016c-0.7002-0.26367-1.51709-0.36914-2.08447-0.90039   c-1.09814-1.02344-3.16455-0.26367-4.50293-0.75391c-0.51709-0.18945-1.10547-0.95898-1.65869-0.91992   c-0.93994,0.06641-2.19727,0.38672-3.0835,0.71289c-0.74609,0.27539-1.45068,0.66211-2.00586,1.24023   c-0.48047,0.5-1.27783,0.78711-1.86719,0.28906c-1.11133-0.94141-1.27295-2.69922-0.03564-3.61328   c0.64404-0.47656,1.46875-0.625,2.11426-1.10156c0.56836-0.41992,1.0127-1.0332,1.70312-1.26953   c0.88916-0.30469,1.76904,0.18945,2.56836,0.52344c0.98633,0.41406,2.01221,0.78906,3.09033,0.84375 M82.5708,123.80518   c0,0-2.30225-0.66016-2.87012,1.71875 M86.47363,130.479c0,0,0.41602,0.39453,1.6416,0.14844 M132.45801,136.03174   c0,0,0.65234-0.25195,0.59961-0.90625 M106.99463,135.02393c1.64648-0.00977,3.29639-0.10742,4.92236-0.375   c1.69775-0.2793,3.30713-0.90625,5.02832-1.07227c2.59766-0.25,5.34766-0.50391,6.82666-2.9707 M123.31738,129.979   c0,0-1.70703-2.88867,2.3877-8.71289 M72.36719,131.84424l15.04395-0.85156 M65.26416,132.13916l1.9917-0.05859    M137.2002,129.82471l-0.57568-0.67188 M113.17041,134.42627l8.64209,10.33984l25.15674-3.26367l-8.21777-9.91211    M109.65576,134.9751l11.75342,13.75977l25.28564-3.33984 M121.36035,148.68408c0,0,2.00684-1.35742,0.50049-3.81641    M146.51855,145.39502l0.62744-0.20117c0,0,1.78662-1.49023-0.12402-3.64258 M65.26416,132.11377l12.45361,14.76172   l24.40381-1.30664l-6.32666-7.93164 M64.86182,136.07861l12.45117,14.76562l24.80859-1.45508c0,0,1.95898-1.75977,0.04932-3.76562    M64.96289,136.23096c0,0,1.55713-0.85352,1.02979-3.13867 M77.2168,150.69189c0,0,2.00635-1.35352,0.50098-3.81641    M94.729,150.6958l4.17969,4.71875l29.18066-3.36523l-2.42627-2.95703 M90.74561,150.93604l7.85986,8.50195l29.20898-3.49609    M98.45508,159.23096c0,0,2.00977-1.35742,0.50537-3.81641 M127.63721,155.94189l0.62988-0.20312   c0,0,1.80469-1.50586-0.12988-3.63867 M47.40625,146.51611l-5.06592-9.9375l2.94141-1.61328l0.21582,0.41992   c-0.83691,0.68359-1.31152,1.26172-1.42822,1.7207c-0.12744,0.45703,0.07129,1.19922,0.58936,2.21875l0.49951,0.98633   l9.00098-4.59375c0.68115-0.3457,1.05176-0.66797,1.11133-0.96484c0.05225-0.29492-0.07861-0.81055-0.39014-1.55273   l0.31494-0.16602l2.61426,5.13086l-0.31836,0.16602c-0.43555-0.7168-0.79492-1.12109-1.07715-1.20508   c-0.28369-0.08984-0.80469,0.0625-1.56494,0.45312l-8.79688,4.47852l0.49854,0.97656   c0.49561,0.97461,0.97656,1.57031,1.43555,1.78125c0.46143,0.20703,1.20752,0.1543,2.24219-0.14648l0.21729,0.43164   L47.40625,146.51611L47.40625,146.51611z M47.28223,125.82471l-4.53125,3.77734l5.86084,0.5625L47.28223,125.82471   L47.28223,125.82471z M54.62549,132.49268l-0.34082,0.10547c-0.2041-0.47266-0.49951-0.77344-0.88525-0.91992   c-0.3916-0.15039-1.36768-0.30664-2.93701-0.47461l-10.47021-1.10352l-0.11182-0.36719l9.26416-7.97461   c0.61768-0.53125,0.98389-0.91602,1.09961-1.1543c0.10645-0.23828,0.125-0.5918,0.05029-1.04883l0.34082-0.10547l1.46973,4.79883   l-0.34131,0.10938c-0.21924-0.54102-0.38574-0.87891-0.50342-1.02148c-0.12256-0.13477-0.3208-0.16211-0.59766-0.07227   c-0.09424,0.01953-0.24707,0.10156-0.46191,0.23828c-0.21143,0.13086-0.43213,0.29297-0.65625,0.48438l-1.57764,1.33594   l1.51025,4.93945c1.38574,0.11914,2.23242,0.18359,2.53955,0.19922c0.29785,0.00391,0.52881-0.01562,0.68701-0.06641   c0.32031-0.0918,0.50146-0.29102,0.54492-0.58594c0.02588-0.18359-0.00928-0.5-0.10645-0.95703l0.33838-0.10352L54.62549,132.49268   L54.62549,132.49268z M37.67334,118.64111l0.36377-0.04102c0.05957,0.49219,0.12549,0.82422,0.20215,0.99414   c0.13623,0.30469,0.36133,0.43945,0.67334,0.40625c0.15967-0.01562,0.37988-0.0957,0.65576-0.23242   c0.27344-0.14258,0.73438-0.4082,1.37939-0.78906l6.5127-3.78516l-7.69531-2.00781   c-0.33789-0.08984-0.62207-0.15234-0.85254-0.19531c-0.229-0.03516-0.41797-0.05078-0.55713-0.0332   c-0.37744,0.03711-0.61768,0.22852-0.71582,0.56641c-0.05615,0.20117-0.06934,0.51758-0.0332,0.96484l-0.36621,0.03711   l-0.42334-4.0166l0.33789-0.03662c0.10107,0.41162,0.24707,0.70361,0.43262,0.88525   c0.28076,0.27344,0.81445,0.51758,1.59717,0.73242l11.50195,3.18555l0.03271,0.29883l-10.28711,5.97266   c-0.86914,0.50586-1.40332,0.89258-1.60156,1.16797c-0.19971,0.26367-0.28906,0.63477-0.27148,1.11523l-0.33545,0.0332   L37.67334,118.64111L37.67334,118.64111z M43.30469,102.34082c-0.3374-1.08398-1.09961-1.6748-2.28369-1.77783   c-1.14062-0.10205-1.9585,0.30029-2.45508,1.19824c-0.26855,0.47852-0.43945,1.13184-0.51074,1.9585   c-0.05029,0.55518-0.0376,0.90381,0.03613,1.0376c0.06445,0.12842,0.24609,0.20508,0.53955,0.22949l4.84814,0.42627   C43.55566,103.99414,43.49365,102.96777,43.30469,102.34082L43.30469,102.34082z M49.53467,109.65479   c-0.00146-0.76025-0.11035-1.24072-0.31836-1.44678c-0.20605-0.20361-0.72266-0.34521-1.5376-0.41553l-8.51904-0.74463   c-0.69482-0.06104-1.15479,0.00391-1.3833,0.19922c-0.23779,0.18359-0.41211,0.62988-0.53271,1.3335l-0.36572-0.02832   l0.47559-5.44727c0.1001-1.1333,0.32764-2.06396,0.68018-2.79492c0.66846-1.38525,1.73438-2.01514,3.19336-1.8877   c0.98047,0.08545,1.70557,0.47314,2.17383,1.15967c0.46973,0.67773,0.73975,1.57373,0.80908,2.68213l5.33984-3.61621   c0.32812-0.22314,0.57568-0.4541,0.73926-0.68945c0.1626-0.24072,0.27637-0.55225,0.35303-0.9375l0.354,0.02979l-0.27686,3.16895   l-6.46094,4.16016l-0.04834,1.09668l3.87402,0.33789c0.72803,0.06494,1.20068-0.00391,1.41943-0.20264   c0.21045-0.20752,0.38135-0.68066,0.50977-1.41699l0.35596,0.02881l-0.47852,5.4624L49.53467,109.65479L49.53467,109.65479z    M50.96338,97.54492c0.13672-0.79297,0.14746-1.3291,0.03271-1.60205c-0.125-0.27783-0.56006-0.50732-1.30078-0.69141   l-8.52246-2.12305c-0.70215-0.17578-1.18262-0.17578-1.43945,0.00879c-0.26611,0.17627-0.51318,0.65234-0.74316,1.42188   l-0.35645-0.08838l1.41211-5.66895l0.35693,0.08838c-0.15625,0.7876-0.1626,1.32568-0.01465,1.60693   c0.14355,0.28174,0.56787,0.50879,1.27051,0.68604l8.52295,2.12061c0.74023,0.18652,1.23096,0.18652,1.4707,0   c0.23486-0.18652,0.47217-0.66211,0.72314-1.43066l0.34375,0.08936l-1.40967,5.66699L50.96338,97.54492L50.96338,97.54492z    M51.9751,92.05664c0.24414-0.78467,0.27979-1.33936,0.1084-1.66211c-0.17578-0.32666-0.74121-0.69336-1.70117-1.1001   l-8.01318-3.3999l-0.39844,0.12451c-0.42627,0.13184-0.71533,0.28027-0.86719,0.43945   c-0.15332,0.14795-0.31738,0.40723-0.48828,0.77686l-0.33643-0.14404l1.32227-3.11572l11.72461-3.28564l-6.08154-2.58301   c-1.00098-0.42236-1.71436-0.54883-2.14062-0.38428c-0.27734,0.11377-0.58838,0.49268-0.93262,1.13574l-0.33594-0.14307   l1.81055-4.26855l0.33887,0.14209c-0.22363,0.72363-0.25195,1.25781-0.0835,1.60107   c0.16797,0.34131,0.72852,0.7168,1.68066,1.12061l9.56885,4.05957l-0.13281,0.31152L43.6416,85.4917l7.08105,3.00635   c0.99316,0.42139,1.70361,0.55029,2.12793,0.39014c0.27441-0.10791,0.58691-0.4751,0.93652-1.1001l0.33154,0.13965   l-1.81543,4.26855L51.9751,92.05664L51.9751,92.05664z M57.96924,76.22363c1.2793-0.07812,2.27002-0.60107,2.96826-1.56201   c0.68262-0.94189,0.87793-2.02637,0.58203-3.2583c-0.29834-1.24316-1.30859-2.4873-3.02979-3.73779   c-1.73926-1.26367-3.24463-1.84131-4.51025-1.72949c-1.26855,0.11475-2.23633,0.63281-2.91016,1.56104   c-0.69385,0.95312-0.88086,2.05908-0.55811,3.31104c0.32324,1.23975,1.3252,2.47266,3.01074,3.69824   C55.20215,75.72363,56.68359,76.29932,57.96924,76.22363L57.96924,76.22363z M49.271,71.72754   c-0.22607-1.66553,0.18115-3.21777,1.22266-4.65088c1.04736-1.44092,2.40088-2.30664,4.06152-2.604   c1.79639-0.32178,3.55078,0.1377,5.25684,1.37402c1.73047,1.25977,2.70947,2.81152,2.93066,4.65771   c0.19873,1.65332-0.21094,3.17578-1.22754,4.57764c-1.08789,1.49658-2.49902,2.37354-4.22998,2.62158   c-1.76172,0.25342-3.45508-0.21143-5.07764-1.38916C50.50244,75.07373,49.52246,73.54736,49.271,71.72754L49.271,71.72754z    M65.04736,60.09033c0.5083-1.00977,0.37061-1.9668-0.40771-2.86621c-0.75146-0.86133-1.61719-1.14355-2.59863-0.8418   c-0.52881,0.1582-1.10352,0.51074-1.72705,1.05225c-0.42383,0.37109-0.65527,0.62402-0.69775,0.77295   c-0.04102,0.13574,0.03662,0.31641,0.22656,0.54102l3.19678,3.6748C64.07764,61.4541,64.74609,60.67627,65.04736,60.09033   L65.04736,60.09033z M64.4458,69.68164c0.52588-0.5498,0.78271-0.97217,0.77734-1.26172   c-0.00488-0.29297-0.28076-0.74951-0.81885-1.37354l-5.61328-6.44873c-0.4541-0.52539-0.83154-0.79785-1.12939-0.81738   c-0.2998-0.02979-0.73535,0.16504-1.31396,0.59033l-0.24121-0.27686l4.12744-3.58789   c0.85742-0.74268,1.66846-1.25635,2.43018-1.53516c1.44629-0.53271,2.64893-0.24414,3.61084,0.85938   c0.64404,0.73975,0.89844,1.521,0.75781,2.34033c-0.1333,0.81738-0.56055,1.6499-1.27979,2.49316l6.3501,1.10986   c0.39404,0.06641,0.73096,0.07129,1.0127,0.01416c0.28174-0.05615,0.58203-0.20166,0.90137-0.42871l0.2373,0.26904   l-2.40234,2.08838l-7.5332-1.49756l-0.7998,0.75586l2.54883,2.93408c0.48242,0.55225,0.87012,0.83252,1.1665,0.83838   c0.29395-0.00098,0.74609-0.22021,1.35107-0.66406l0.2334,0.26807l-4.13818,3.6001L64.4458,69.68164L64.4458,69.68164z    M70.25,48.7793l0.18701,0.31348c-0.41797,0.26318-0.69336,0.46094-0.81592,0.60498   c-0.2168,0.24707-0.24609,0.5083-0.08057,0.78027c0.08057,0.13623,0.24365,0.30029,0.48779,0.49316   c0.24609,0.18848,0.67773,0.49707,1.29297,0.91992l6.18604,4.30322l-1.43018-7.82422   c-0.06201-0.34326-0.12744-0.63037-0.18799-0.85449c-0.05713-0.22314-0.12695-0.39844-0.20166-0.51953   c-0.19141-0.32617-0.46826-0.46094-0.81641-0.40918c-0.20605,0.03174-0.49951,0.1582-0.8877,0.37793l-0.18848-0.31543   l3.46094-2.08057l0.17334,0.29004c-0.32666,0.26221-0.53271,0.52148-0.61768,0.76562   c-0.12988,0.36914-0.12842,0.95557,0.01318,1.75928l1.97266,11.76709L78.5459,59.3042l-9.76611-6.79785   c-0.82715-0.57373-1.40576-0.896-1.73584-0.95752c-0.3252-0.06738-0.69824,0.00928-1.125,0.22607l-0.17236-0.29248L70.25,48.7793   L70.25,48.7793z M82.96045,55.37012c0.75684-0.31738,1.20361-0.646,1.33984-0.98389c0.1377-0.3457,0.05664-1.01465-0.24902-2.01074   l-2.34521-7.66846c-0.20605-0.68359-0.45312-1.0918-0.72852-1.22754c-0.28076-0.14355-0.80615-0.11816-1.57764,0.07617   l-0.10693-0.3501l3.7334-1.14062l7.27979,8.18457l1.26367-10.7998l3.7627-1.14551l0.10352,0.34766   c-0.68262,0.26318-1.09277,0.53174-1.23242,0.80029c-0.14209,0.26855-0.11279,0.73193,0.09375,1.40527l2.57031,8.39795   c0.20996,0.68701,0.44873,1.09863,0.70898,1.23389c0.26221,0.12891,0.75439,0.11328,1.46924-0.03809l0.10742,0.3418   l-5.29248,1.61865l-0.10645-0.33936c0.74414-0.29736,1.17725-0.57764,1.30127-0.84033   c0.12158-0.2749,0.05908-0.81152-0.18555-1.6084l-2.5918-8.48291l-1.54248,12.2251l-0.26074,0.08057l-7.89941-8.85645   l2.30615,7.53369c0.31494,1.03125,0.67139,1.65918,1.06836,1.87842c0.25684,0.14258,0.73877,0.14795,1.4458,0.01465   l0.10156,0.33887l-4.43408,1.35791L82.96045,55.37012L82.96045,55.37012z M118.17529,47.13867   c0.14307,0.93604,0.38037,1.70947,0.70996,2.31738c0.57568,1.06445,1.43262,1.7168,2.57129,1.95801   c0.61475,0.13184,1.1875,0.04883,1.71729-0.24609c0.53613-0.29395,0.87598-0.78955,1.02637-1.48682   c0.12988-0.62744,0.02295-1.22461-0.33447-1.78467c-0.229-0.35693-0.7583-0.93213-1.58154-1.72607l-1.43164-1.37793   c-0.42871-0.42285-0.76172-0.82227-0.98633-1.20703c-0.41895-0.72559-0.54736-1.45703-0.38965-2.19092   c0.20459-0.97412,0.69971-1.71533,1.48584-2.22754c0.78613-0.50977,1.71143-0.65186,2.78271-0.42432   c0.43701,0.09229,0.94287,0.31641,1.51123,0.66895c0.57812,0.34473,0.91113,0.52832,0.99658,0.54639   c0.24072,0.0498,0.41504,0.02832,0.52881-0.06738c0.11914-0.09131,0.22314-0.23779,0.31787-0.43359l0.39551,0.08545   l-0.44629,4.19873l-0.4624-0.09619c-0.05518-1.30713-0.37402-2.27783-0.96777-2.91553   c-0.58691-0.64014-1.22021-1.02783-1.8999-1.17236c-0.5249-0.1123-1.02393-0.05127-1.48486,0.17578   c-0.45557,0.2251-0.74072,0.61523-0.8623,1.16846c-0.10498,0.49658-0.04248,0.95166,0.18604,1.37061   c0.22266,0.42041,0.61475,0.89453,1.16553,1.41699l1.47705,1.40967c0.92139,0.87891,1.53955,1.63818,1.85742,2.27637   c0.31152,0.64502,0.38672,1.34521,0.22559,2.09912c-0.21387,1.01074-0.77686,1.7749-1.69043,2.28906   c-0.90186,0.51953-1.95068,0.65088-3.14014,0.39941c-0.59326-0.12598-1.19775-0.37451-1.80273-0.7373   c-0.59961-0.36719-0.94629-0.55908-1.04297-0.57861c-0.22607-0.04736-0.39307-0.00928-0.50439,0.11035   c-0.10205,0.12158-0.19043,0.25732-0.24561,0.41211l-0.42285-0.09131l0.29932-4.23389L118.17529,47.13867L118.17529,47.13867z    M126.25293,52.69238c0.77539,0.23584,1.30273,0.31006,1.58838,0.22803c0.29102-0.08838,0.57031-0.48926,0.84473-1.20605   l3.14502-8.19775c0.26514-0.67627,0.31787-1.15625,0.16797-1.43115c-0.14502-0.28564-0.58594-0.5874-1.32324-0.91064   l0.13281-0.34229l5.4541,2.09082l-0.12939,0.34473c-0.76709-0.25195-1.29736-0.32129-1.59277-0.2085   c-0.29883,0.10693-0.57422,0.49805-0.83496,1.17578l-3.14844,8.19873c-0.27051,0.71484-0.33252,1.20068-0.1748,1.46094   c0.15479,0.25488,0.59766,0.55029,1.32715,0.89453l-0.12598,0.32861l-5.45264-2.09277L126.25293,52.69238L126.25293,52.69238z    M145.98193,47.91357c0.54443,0.54297,0.86621,0.84033,0.95947,0.89404c0.24854,0.13623,0.44873,0.18359,0.60352,0.14502   c0.15869-0.0332,0.32812-0.12207,0.49707-0.26172l0.37939,0.21045l-1.87842,3.70801l-0.396-0.21973   c0.10986-1.03223,0.09082-1.85938-0.06152-2.48096c-0.2793-1.0957-0.96484-1.94482-2.05518-2.54932   c-1.10498-0.61426-2.31592-0.73438-3.62305-0.35742c-1.30762,0.37305-2.49023,1.52539-3.56104,3.45215   c-0.88037,1.58936-1.14893,3.06494-0.80811,4.42139c0.34619,1.35889,1.12842,2.37842,2.35889,3.06104   c0.21094,0.11475,0.46289,0.23193,0.76709,0.34912c0.30273,0.11621,0.60596,0.20166,0.90137,0.25586   c0.4873,0.0957,0.81104,0.12158,0.96143,0.08008c0.16064-0.04199,0.28906-0.1626,0.39404-0.35303l1.52832-2.75586   c0.36914-0.66357,0.50146-1.13135,0.40283-1.40039c-0.09424-0.26465-0.44922-0.59326-1.06494-0.98584l0.17822-0.32031   l4.40234,2.44189l-0.17773,0.31934c-0.44434-0.20996-0.76514-0.29492-0.96777-0.26416   c-0.33643,0.05127-0.66162,0.3584-0.97119,0.91992l-1.88525,3.39551c-0.1123,0.20361-0.75684,0.19824-1.94092-0.01562   c-1.17529-0.21191-2.2207-0.57275-3.13623-1.0791c-1.68896-0.93799-2.8374-2.21631-3.45215-3.84229   c-0.67383-1.79004-0.50684-3.59961,0.5083-5.42627c0.89307-1.6084,2.16113-2.70166,3.81543-3.2832   c1.81934-0.64746,3.65381-0.45605,5.50293,0.56689C144.8335,46.91211,145.44092,47.36914,145.98193,47.91357L145.98193,47.91357z    M143.12939,61.02832c0.66211,0.46143,1.14014,0.69238,1.43799,0.70508c0.2998,0.00293,0.69385-0.28906,1.17725-0.88477   l5.52539-6.82275c0.45752-0.56641,0.65527-1.00244,0.60205-1.31299c-0.0498-0.31494-0.37891-0.73926-0.97754-1.27539   l0.23291-0.28467l4.53955,3.67822l-0.22949,0.2832c-0.6499-0.47412-1.13281-0.70703-1.45166-0.68945   c-0.31592,0.0083-0.69922,0.2959-1.15967,0.86084l-5.52246,6.82764c-0.48242,0.59277-0.68799,1.03613-0.62109,1.33154   c0.06934,0.2876,0.40039,0.70654,0.98779,1.25879l-0.2251,0.27832l-4.54102-3.67773L143.12939,61.02832L143.12939,61.02832z    M147.70361,64.29834c0.55029,0.48047,0.96582,0.7334,1.2417,0.7666c0.28857,0.03125,0.69922-0.20605,1.24512-0.71533   l6.42676-5.98877c0.50977-0.47559,0.77051-0.86719,0.78125-1.16553c0.01514-0.30469-0.20801-0.74365-0.67236-1.31348   l0.27002-0.25098l3.80371,4.08447l-0.26416,0.24902c-0.5249-0.50293-0.94287-0.78027-1.26123-0.8291   c-0.31396-0.04199-0.70801,0.16064-1.18604,0.60742l-6.93799,6.47119c-0.15918,0.14648-0.26221,0.29199-0.30762,0.43213   c-0.03809,0.13965,0.01562,0.31055,0.16406,0.5166c0.08594,0.12061,0.18311,0.24316,0.28662,0.36328   c0.11084,0.12939,0.31641,0.35449,0.62744,0.68359c1.19531,1.28271,2.10889,2.05225,2.7417,2.30469   c0.63232,0.25732,1.58008,0.18896,2.84473-0.19775l0.3418,0.36621l-3.16211,1.62744l-7.24316-7.76709L147.70361,64.29834   L147.70361,64.29834z M171.18164,73.73193l-0.32373,0.1748c-0.23877-0.43457-0.42236-0.7168-0.56299-0.84961   c-0.23828-0.22705-0.4917-0.26953-0.77344-0.12354c-0.14111,0.0752-0.31396,0.23047-0.52002,0.46338   c-0.20166,0.23779-0.53027,0.65283-0.98389,1.24609l-4.62061,5.94922l7.88818-1.01611   c0.34717-0.04932,0.63477-0.0957,0.86182-0.14453c0.22998-0.04736,0.40283-0.10693,0.53271-0.17334   c0.33301-0.17334,0.4834-0.44336,0.44922-0.79297c-0.02197-0.20752-0.13232-0.50879-0.32861-0.90723l0.32275-0.17334   l1.89697,3.56689l-0.2959,0.1582c-0.24805-0.34082-0.49512-0.56055-0.7334-0.65869   c-0.36475-0.14746-0.95117-0.17578-1.75928-0.08203l-11.85547,1.36084l-0.14062-0.26465l7.29883-9.396   c0.61914-0.79541,0.96729-1.35449,1.04883-1.68018c0.0835-0.32373,0.03223-0.70068-0.16748-1.13525l0.29883-0.15625   L171.18164,73.73193L171.18164,73.73193z M163.76611,86.27197c0.29053,0.76465,0.60498,1.22559,0.93701,1.37451   c0.33887,0.14795,1.01221,0.08838,2.01758-0.18066l8.40771-2.25244l0.23535-0.34424   c0.25488-0.36621,0.39551-0.66016,0.41748-0.87939c0.02783-0.21338-0.00391-0.51904-0.09717-0.91309l0.35449-0.09229   l0.87695,3.26465l-7.21289,9.81006l6.37549-1.71045c1.05225-0.28223,1.68994-0.62012,1.92432-1.01611   c0.15137-0.26221,0.1665-0.74854,0.03662-1.46582l0.35645-0.09326l1.19678,4.47754l-0.35205,0.09473   c-0.26855-0.70654-0.57568-1.14258-0.9165-1.30811c-0.34473-0.16846-1.01904-0.12109-2.02002,0.14893L166.26807,97.875   l-0.08691-0.32568l8.19531-11.23828l-7.43213,1.9917c-1.04248,0.28027-1.68262,0.61328-1.91504,1.00146   c-0.15381,0.25635-0.17383,0.73584-0.06299,1.44482l-0.3457,0.0918l-1.2002-4.48047L163.76611,86.27197L163.76611,86.27197z    M167.13135,99.31396c0.15186,0.79053,0.3335,1.29297,0.54053,1.50928c0.21436,0.21436,0.7002,0.27295,1.46094,0.1792   l8.71533-1.0708c0.72363-0.08594,1.17236-0.26514,1.3457-0.52197c0.18115-0.26318,0.24316-0.7959,0.18115-1.59863l0.36768-0.04395   l0.71094,5.79932l-0.36377,0.04443c-0.13818-0.79297-0.32324-1.29395-0.56299-1.50537   c-0.23389-0.21191-0.71094-0.27246-1.43213-0.18359l-8.71631,1.07227c-0.75879,0.08984-1.21826,0.2666-1.37451,0.52686   c-0.14893,0.25635-0.20215,0.78906-0.16211,1.59326l-0.35547,0.0415l-0.71191-5.7959L167.13135,99.31396L167.13135,99.31396z    M180.64502,108.77051c-0.29639,0.06006-1.33643,0.53516-1.72217,0.62402c-0.35791,0.14844-0.82129,0.21826-1.521,0.49121   l-6.3042,2.21436l6.48682,2.88281c0.31787,0.14258,2.40674,0.98047,2.61816,1.10352   c0.22021,0.07617-0.04834,3.34766-0.04834,3.34766l-0.33447-0.01953c-0.03662-0.41797-0.13525-1.26758-0.28955-1.47266   c-0.23535-0.31445-0.72314-0.64062-1.46191-0.98242l-10.86328-4.93555l0.01318-0.29883l11.09277-4.29199   c0.94336-0.3623,1.38184-0.56201,1.61963-0.80273c0.23926-0.23438,0.30078-0.97363,0.3584-1.44482l0.33838,0.01562   C180.62744,105.20117,180.79346,108.53369,180.64502,108.77051L180.64502,108.77051z M167.53174,117.74072   c-0.09863,0.72266-0.08887,1.21094,0.03613,1.45703c0.12646,0.26172,0.55273,0.47656,1.27588,0.65625l8.521,2.12695   c0.67773,0.16992,1.14941,0.17383,1.40576,0.02539c0.26807-0.15625,0.51025-0.58203,0.7373-1.2793l0.35303,0.08789   l-2.53857,10.17773l-2.76562-0.62109l0.12158-0.48828c0.88818,0.05078,1.50146-0.04883,1.83154-0.31641   c0.3291-0.26367,0.63281-0.95508,0.91455-2.07812l0.64941-2.59961c0.06982-0.28125,0.06445-0.4668-0.01074-0.55664   c-0.07471-0.08984-0.23535-0.16016-0.48145-0.22266l-4.27539-1.06641l-0.73633,2.94531   c-0.2041,0.81836-0.21045,1.37109-0.0249,1.65625c0.18799,0.28711,0.63477,0.58789,1.34424,0.90625l-0.11328,0.45117   l-4.43213-1.10938l0.10986-0.44336c0.77588,0.04297,1.31348-0.02148,1.60547-0.1875   c0.29932-0.16211,0.55029-0.64648,0.75342-1.45898l0.73242-2.94531l-4.74072-1.1875   c-0.38135-0.08984-0.63477-0.0332-0.76318,0.18945c-0.12695,0.22656-0.34619,0.93945-0.63965,2.13672   c-0.32617,1.29688-0.42236,2.29297-0.29688,2.97266c0.13428,0.69141,0.68555,1.42188,1.65381,2.18359l-0.13428,0.53516   l-3.01855-1.67773l2.5791-10.35547L167.53174,117.74072L167.53174,117.74072z M168.36621,137.36182   c-0.04785,1.12695,0.46436,1.94727,1.53662,2.44922c1.03809,0.48438,1.94727,0.38672,2.72119-0.28906   c0.41309-0.35156,0.79736-0.91406,1.14844-1.66211c0.23828-0.50391,0.34717-0.83398,0.32422-0.98633   c-0.02197-0.14648-0.16162-0.27734-0.43066-0.40625l-4.41406-2.05469C168.69971,135.71924,168.40234,136.70557,168.36621,137.36182   L168.36621,137.36182z M165.01562,128.35205c-0.25488,0.7168-0.32178,1.20703-0.1958,1.47266   c0.12402,0.25977,0.56055,0.56641,1.30273,0.91406l7.75098,3.61523c0.62988,0.29102,1.08496,0.38867,1.3667,0.28906   c0.28467-0.10156,0.60449-0.45508,0.96045-1.07812l0.33252,0.1582l-2.30957,4.94922   c-0.48096,1.03516-1.01562,1.83203-1.5957,2.39648c-1.10693,1.07227-2.32031,1.30078-3.64795,0.67969   c-0.89258-0.41211-1.43945-1.02148-1.646-1.82812c-0.20996-0.79883-0.15771-1.73242,0.15723-2.79492l-6.25586,1.57227   c-0.38525,0.09375-0.69727,0.22656-0.92432,0.38867c-0.2373,0.17383-0.45459,0.42188-0.65723,0.76367l-0.32178-0.15039   l1.34229-2.88281l7.49316-1.69922l0.42285-1.00977l-3.52246-1.64844c-0.66406-0.3125-1.13135-0.4082-1.40381-0.29297   c-0.27051,0.12695-0.59082,0.50781-0.96729,1.1582l-0.32373-0.15234l2.3208-4.9707L165.01562,128.35205L165.01562,128.35205z    M162.26904,142.23291c-0.91748-0.25195-1.71729-0.35156-2.40723-0.29688c-1.20557,0.09375-2.14893,0.61133-2.83398,1.55273   c-0.3667,0.51172-0.52588,1.06445-0.47217,1.67188c0.04932,0.60742,0.36328,1.11719,0.93994,1.54102   c0.52295,0.38086,1.10645,0.51758,1.76465,0.41992c0.4248-0.06445,1.16211-0.31055,2.22021-0.74023l1.84619-0.74805   c0.55566-0.22266,1.05615-0.36133,1.49805-0.4082c0.83496-0.08984,1.55908,0.0918,2.16309,0.5293   c0.80371,0.58789,1.27979,1.3418,1.42773,2.26953c0.14893,0.92383-0.09717,1.82812-0.74365,2.71289   c-0.26123,0.35938-0.6709,0.73242-1.2251,1.11328c-0.54785,0.38281-0.84961,0.61523-0.90332,0.68359   c-0.14209,0.19727-0.19385,0.36914-0.15576,0.50781c0.03857,0.14844,0.12842,0.30078,0.27197,0.46875l-0.24268,0.33008   l-3.65283-2.11914l0.27734-0.38477c1.20996,0.48242,2.23145,0.58594,3.05518,0.30273   c0.82422-0.27344,1.43896-0.69336,1.84766-1.25781c0.31396-0.43555,0.46143-0.91406,0.44092-1.42969   c-0.02148-0.50977-0.26123-0.92773-0.71631-1.25781c-0.4126-0.30469-0.85449-0.42969-1.32812-0.39258   c-0.47754,0.03125-1.06787,0.19531-1.771,0.49023l-1.88525,0.77539c-1.17871,0.47656-2.125,0.74219-2.84033,0.77148   c-0.71143,0.02148-1.38135-0.19531-2.00342-0.65039c-0.83838-0.60547-1.31006-1.43359-1.40967-2.47266   c-0.10205-1.04297,0.20264-2.05078,0.91699-3.0332c0.35547-0.49023,0.8252-0.94141,1.40576-1.3457   c0.57568-0.40234,0.89111-0.63672,0.95068-0.71484c0.13379-0.19141,0.16943-0.35938,0.10303-0.50586   c-0.06641-0.14844-0.16064-0.28125-0.27393-0.39453l0.25391-0.35156l3.74707,1.99805L162.26904,142.23291L162.26904,142.23291z    M144.65283,162.03174l5.04443,3.05469l-1.37256-5.7207L144.65283,162.03174L144.65283,162.03174z M148.56641,152.92041   l0.20996,0.28906c-0.37939,0.34375-0.57178,0.7207-0.58154,1.13477c-0.01465,0.41992,0.15186,1.39453,0.50977,2.93359   l2.36377,10.25586l-0.31055,0.23047l-10.55664-6.16797c-0.70166-0.4082-1.18604-0.63086-1.44873-0.66602   c-0.26172-0.02344-0.59912,0.08008-1.01123,0.29492l-0.21094-0.28906l4.06348-2.95117l0.20947,0.29102   c-0.43701,0.38086-0.7041,0.65234-0.79883,0.80469c-0.08496,0.1582-0.04883,0.35742,0.125,0.5918   c0.05225,0.08008,0.17969,0.19531,0.37549,0.35547c0.19678,0.1582,0.42041,0.31836,0.67041,0.46289l1.78223,1.05469   l4.18066-3.03516c-0.34424-1.34766-0.56055-2.16602-0.64746-2.46094c-0.08984-0.28711-0.18066-0.49805-0.2793-0.63281   c-0.19629-0.26562-0.44336-0.37695-0.7334-0.32422c-0.18311,0.04102-0.47217,0.17383-0.86475,0.41406l-0.21094-0.2832   L148.56641,152.92041L148.56641,152.92041z M141.02246,173.26807l-0.15088-0.33398   c0.44434-0.21875,0.73682-0.38477,0.87793-0.51758c0.23877-0.22656,0.29297-0.48633,0.16064-0.76172   c-0.06836-0.15039-0.21191-0.33008-0.43457-0.55273c-0.22314-0.20898-0.62354-0.55859-1.19238-1.05469l-5.69727-4.91992   l0.60205,7.93164c0.02393,0.35352,0.06055,0.64258,0.09668,0.86914c0.03516,0.22852,0.08496,0.41406,0.14404,0.53906   c0.16162,0.34766,0.41846,0.50781,0.77246,0.49414c0.20654-0.01172,0.51318-0.10547,0.92383-0.2793l0.15137,0.33203   l-3.66016,1.70508l-0.14258-0.30859c0.35303-0.2207,0.5835-0.45508,0.69482-0.69141   c0.16797-0.36133,0.22217-0.9375,0.17188-1.75586l-0.73242-11.9082l0.26562-0.12695l9.00732,7.78125   c0.75635,0.6582,1.30078,1.0332,1.62012,1.13867c0.31836,0.09961,0.7002,0.0625,1.14404-0.10938l0.14111,0.30664   L141.02246,173.26807L141.02246,173.26807z M122.86279,179.5376c-0.76855-0.04297-1.20703-0.04883-1.31445-0.02148   c-0.27393,0.06055-0.45703,0.16016-0.54346,0.28711c-0.09814,0.13867-0.15674,0.31445-0.19336,0.53516l-0.42383,0.09766   l-1.08594-4.01172l0.44287-0.10156c0.60742,0.83398,1.17578,1.44141,1.7002,1.80078c0.94434,0.625,2.02393,0.80078,3.2373,0.51953   c1.23535-0.28711,2.2124-1.00586,2.93408-2.16211c0.71875-1.14648,0.82861-2.79297,0.33203-4.94336   c-0.40674-1.76758-1.1958-3.04492-2.35645-3.82812c-1.16504-0.78125-2.43164-1.01172-3.80371-0.69922   c-0.23047,0.05664-0.49658,0.14062-0.80322,0.25781c-0.30078,0.11523-0.5835,0.25195-0.84619,0.41016   c-0.41992,0.25781-0.67432,0.44727-0.7627,0.58594c-0.08594,0.13672-0.10547,0.31445-0.05713,0.5293l0.7124,3.07031   c0.1665,0.73438,0.38232,1.17188,0.6377,1.30664c0.24902,0.13086,0.72998,0.13672,1.44922,0.01758l0.07959,0.36133   l-4.90332,1.12891l-0.08203-0.35547c0.4668-0.14258,0.76807-0.29297,0.89551-0.45312   c0.21436-0.26172,0.25195-0.70312,0.10938-1.33594l-0.87598-3.7793c-0.05273-0.23242,0.43408-0.65625,1.45312-1.28711   c1.01562-0.62695,2.03564-1.06445,3.05322-1.30078c1.87988-0.43555,3.59229-0.25391,5.13525,0.54297   c1.7002,0.87891,2.78467,2.3457,3.25488,4.37695c0.41504,1.79297,0.2041,3.45703-0.6333,4.99414   c-0.92676,1.69922-2.41406,2.78125-4.47217,3.26367C124.38672,179.51611,123.62891,179.57666,122.86279,179.5376   L122.86279,179.5376z M111.22266,180.90869v-0.36328c0.49658-0.00781,0.83447-0.04102,1.01562-0.09766   c0.31152-0.10352,0.46924-0.3125,0.46924-0.62891c0-0.16016-0.05615-0.38281-0.16455-0.67188   c-0.11377-0.28906-0.32812-0.77344-0.63574-1.45508l-3.08887-6.87305l-2.79932,7.4375   c-0.12402,0.33203-0.21338,0.60547-0.28223,0.83008c-0.06348,0.22461-0.09473,0.4082-0.09473,0.55078   c0,0.38281,0.16357,0.63477,0.49121,0.76953c0.19238,0.08008,0.50977,0.125,0.95215,0.13867v0.36328h-4.03809v-0.33398   c0.42041-0.06055,0.72461-0.17383,0.92383-0.33789c0.30078-0.25195,0.60254-0.75781,0.89941-1.51562l4.36475-11.10547h0.29688   l4.875,10.85547c0.40869,0.91992,0.7417,1.49219,0.99561,1.71875c0.24316,0.2207,0.6001,0.34766,1.07715,0.38477v0.33398H111.22266   L111.22266,180.90869z M101.7627,171.58838c-0.16016-0.93359-0.40918-1.70703-0.74902-2.30469   c-0.59424-1.05469-1.46387-1.69531-2.60547-1.91016c-0.61816-0.12109-1.19043-0.02734-1.71582,0.27539   c-0.52832,0.30078-0.86084,0.80273-0.99609,1.5c-0.12451,0.63477-0.00293,1.22461,0.36035,1.77539   c0.2373,0.35938,0.77441,0.92773,1.61328,1.69922l1.45654,1.35547c0.43799,0.41602,0.77197,0.80859,1.00684,1.19336   c0.43018,0.71289,0.57227,1.44336,0.43018,2.17773c-0.19043,0.98438-0.67529,1.73438-1.4502,2.25391   c-0.77783,0.52344-1.70068,0.68164-2.77148,0.47852c-0.44092-0.08984-0.95166-0.30078-1.52539-0.64258   c-0.58496-0.33984-0.91699-0.51367-1.00781-0.53125c-0.24121-0.04688-0.41113-0.01758-0.5249,0.07227   c-0.11816,0.09961-0.22119,0.24219-0.31201,0.44141l-0.39697-0.07617l0.37598-4.21094l0.46387,0.0957   c0.07178,1.30078,0.4126,2.26758,1.01758,2.89258c0.59717,0.625,1.23877,1.00586,1.91846,1.14062   c0.53223,0.10156,1.02393,0.03711,1.48486-0.20312c0.45068-0.23242,0.72998-0.62695,0.83789-1.18164   c0.09961-0.49414,0.02979-0.95117-0.20654-1.36719c-0.23193-0.41406-0.62793-0.88086-1.18994-1.39648l-1.49951-1.37891   c-0.93896-0.86328-1.57129-1.61328-1.90234-2.25391c-0.32178-0.63086-0.40771-1.33008-0.25928-2.08984   c0.19629-1.01562,0.74609-1.78711,1.64795-2.32227c0.89404-0.5332,1.93945-0.67969,3.13232-0.44727   c0.59766,0.11328,1.20508,0.35156,1.81787,0.70508c0.60596,0.34961,0.95508,0.54297,1.05273,0.55664   c0.22559,0.04492,0.39453,0.00586,0.50098-0.11914c0.10205-0.12305,0.18213-0.25977,0.23828-0.41406l0.42383,0.08203   l-0.22266,4.24219L101.7627,171.58838L101.7627,171.58838z M88.9707,178.32666l-10.41455-3.99414l1.10254-3.17383l0.44238,0.16992   c-0.16309,1.07031-0.13135,1.81055,0.09131,2.23828c0.21387,0.42578,0.85693,0.8457,1.92383,1.25391l1.02539,0.39258   l3.62207-9.43164c0.27441-0.71484,0.33057-1.20312,0.17578-1.46484c-0.15625-0.25-0.59863-0.54297-1.32812-0.88867l0.12695-0.33398   l5.37549,2.06445l-0.12744,0.33203c-0.80322-0.23828-1.33984-0.29688-1.60645-0.16797   c-0.26855,0.11914-0.55566,0.58008-0.86426,1.37891l-3.53662,9.21875l1.02832,0.38867   c1.01709,0.39453,1.77197,0.51367,2.25732,0.36133c0.47705-0.15234,0.99854-0.68555,1.56689-1.60938l0.44775,0.17383   L88.9707,178.32666L88.9707,178.32666z M75.06494,163.29346l-0.7373,5.85352l4.67188-3.58398L75.06494,163.29346   L75.06494,163.29346z M84.98389,163.16846l-0.17725,0.31055c-0.47119-0.20898-0.89551-0.22656-1.27686-0.06836   c-0.38477,0.15039-1.20947,0.70312-2.46875,1.64453l-8.40967,6.33984l-0.33447-0.19141l1.33887-12.15234   c0.08545-0.80664,0.09229-1.33594,0.01709-1.5918c-0.0874-0.25-0.31201-0.51758-0.68311-0.80664l0.17822-0.30664l4.35059,2.50977   l-0.18066,0.30859c-0.52441-0.24219-0.87793-0.375-1.05859-0.40039c-0.18164-0.01758-0.34668,0.10352-0.49121,0.34961   c-0.04834,0.08594-0.10498,0.25195-0.17285,0.49219c-0.06592,0.24414-0.11572,0.50586-0.15186,0.80664l-0.24023,2.05078   l4.47754,2.58203c1.09033-0.86328,1.75244-1.38867,1.98389-1.58789c0.22705-0.19922,0.38086-0.36914,0.46387-0.51367   c0.16895-0.28906,0.16699-0.55664-0.00244-0.80273c-0.10742-0.15039-0.34912-0.35938-0.73047-0.62305l0.17578-0.30664   L84.98389,163.16846L84.98389,163.16846z M73.68848,156.87158c-0.59717-0.41797-1.03369-0.63086-1.31543-0.63086   c-0.28516-0.00586-0.6748,0.27344-1.16357,0.84375l-5.75977,6.61914c-0.46094,0.53125-0.68018,0.94727-0.65869,1.24414   c0.01709,0.30664,0.28516,0.71289,0.80469,1.23242l-0.24072,0.2793l-7.91846-6.87891l1.80859-2.18555l0.37988,0.33008   c-0.44824,0.76953-0.62939,1.35938-0.5459,1.77734c0.0835,0.4082,0.56152,0.99609,1.43604,1.75391l2.02002,1.75977   c0.21973,0.18945,0.38672,0.27344,0.50439,0.25c0.10693-0.02734,0.24463-0.14062,0.41309-0.33398l2.89062-3.32617l-2.2915-1.99023   c-0.63574-0.55273-1.12402-0.81055-1.46094-0.77344c-0.34131,0.03711-0.81543,0.30078-1.42236,0.7793l-0.35059-0.30078   l2.99902-3.44922l0.34863,0.30469c-0.39062,0.67578-0.57715,1.18164-0.56299,1.51953   c0.01025,0.33789,0.33057,0.7793,0.96191,1.32812l2.28857,1.99219l3.20947-3.68555   c0.25928-0.30273,0.31836-0.55273,0.17871-0.76953c-0.14258-0.2168-0.6792-0.73047-1.61084-1.53906   c-1.01123-0.87695-1.8501-1.41406-2.51758-1.61523c-0.67578-0.19531-1.57324-0.0332-2.69434,0.48633l-0.41504-0.36523   l2.86621-1.92578l8.05322,7.00195L73.68848,156.87158L73.68848,156.87158z M89.13965,88.54785   c-1.24658-0.57129-1.27588,1.54785,0.47754,1.54785 M86.229,86.58887c0,0-1.54932,0.83252,0.70801,1.36621 M30.05762,108.45703   c0-43.49902,35.26221-78.75928,78.75928-78.75928c43.50488,0,78.76758,35.26025,78.76758,78.75928   c0,43.49463-35.2627,78.76025-78.76758,78.76025C65.31982,187.21729,30.05762,151.95166,30.05762,108.45703L30.05762,108.45703z    M54.89844,108.45703c0-29.77686,24.14111-53.91797,53.91846-53.91797c29.78271,0,53.92578,24.14111,53.92578,53.91797   c0,29.77979-24.14307,53.92236-53.92578,53.92236C79.03955,162.37939,54.89844,138.23682,54.89844,108.45703L54.89844,108.45703z    M98.99365,41.05615c0.49756-0.10693,1.23486-0.68457,1.04883-1.55273c-0.15576-0.729-0.89551-1.21143-1.60596-1.0625   c-0.70557,0.15137-1.16943,0.86572-1.01123,1.61816C97.61816,40.9541,98.50195,41.16162,98.99365,41.05615L98.99365,41.05615z    M100.80176,49.51025c0.49658-0.10791,1.23193-0.68262,1.04932-1.55518c-0.1582-0.72998-0.90039-1.21045-1.6084-1.06201   c-0.70557,0.15088-1.1665,0.8667-1.00684,1.62256C99.42725,49.40869,100.31104,49.61182,100.80176,49.51025L100.80176,49.51025z    M124.76904,135.47705c-1.55762-0.10547-4.20312,0.34961-4.62842,2.17188c-0.24414,1.04688,0.87256,2.24414,1.68359,1.17578   c0.64404-0.84766,1.88916-2.08594,3.06348-1.56641 M121.43896,139.51611c0.52002,1.04297,1.79297,2.43945,3.10059,2.10547   c1.32959-0.33789,1.65332-2.04297,2.1333-3.11523 M90.98633,135.4126l-1.60645-0.17578l-0.71289,0.05273l-0.77686,0.1875   l-0.77441,0.29297l-0.65186,0.5957l-0.41504,0.65234l-0.29688,0.5332l-0.18018,0.59961l0.29932,0.41406l0.59277,0.47656   l0.41699,0.17383c0,0,2.71924-3.0957,4.2832-2.31641 M86.99756,139.33838l0.29883,0.5957l0.47754,0.53906l0.59424,0.41016   l0.7124,0.41602l0.65283,0.17773l0.65576-0.05859l0.35645-0.35547l0.35693-0.4707l0.35498-0.53906l0.77539-1.72266    M71.5376,128.0376c-0.93799-0.10352-1.96631-0.28906-2.88281,0.03516c-0.71387,0.25391-1.1333,0.8457-1.61182,1.39062   c-0.31445,0.35938-0.89209,0.875-0.8623,1.40039c0.03955,0.70508,1.16211,1.34375,1.66748,1.69336   c0.55713-1.18945,1.92188-3.85938,3.62842-3.0332 M67.84814,132.55713c0.76758,0.67969,2.06299,1.42383,3.12695,1.16016   c1.18457-0.29492,1.37305-1.87891,1.75098-2.82422 M77.27539,150.78369c1.06787,0.83594,0.92236,0.68555,1.63574,0.86719   l21.79443-1.22266c0.24072-0.08789,1.13232-0.41211,1.57861-1.21289 M98.59668,159.44189   c0.71533,0.86133,1.36816,0.80273,1.36816,0.80273l27.24414-3.30273c0,0,0.979-0.71289,1.33691-1.48633 M121.37988,148.73486   c0.83154,0.95117,1.66553,0.83008,1.66553,0.83008l22.125-2.9707c0,0,1.17041-0.13867,2.04932-1.45898 M78.91113,105.42139   c-0.15527-0.4624-0.21289-1.23389-0.81543-1.33887c-0.56104-0.09766-1.35059,0.33057-1.74023,0.71436   c-0.52686,0.51904-0.4585,1.3335-0.52979,2.0083c-0.10742,1.02344-0.20801,2.05371-0.47559,3.05029   c2.06689-0.46973,3.60986-2.33936,3.56104-4.47705 M76.51953,108.021c0.13184-0.62646,0.08984-2.64648,0.95703-2.77783   c0.76465-0.11572,0.71533,0.91309,0.48486,1.32764C77.64502,107.13818,77.09473,107.70898,76.51953,108.021   c0.00244-0.01172,0.18701-0.47754,0.29102-0.30566C76.87988,107.83057,76.54346,108.0083,76.51953,108.021   C76.58154,107.72607,77.12891,107.69043,76.51953,108.021z M106.41943,44.20947l-2.55957,0.83301v-5.35205l2.55957,0.83398    M106.22119,40.46533l-0.82959-2.55859h5.35254l-0.83594,2.55859 M109.74902,40.56543l2.55957-0.83252v5.35205l-2.55957-0.83203    M109.9082,44.27051l0.83594,2.55908h-5.35254l0.82959-2.55908 M129.84766,68.34229   c-1.64893,0.47217-3.30176,1.11914-5.04688,0.85449c-0.6582-0.1001-2.83984-0.68018-2.39697-1.77832   c0.27295-0.67627,1.84473-0.36719,2.36328-0.23779c0.8042,0.20068,1.51367,0.67383,2.32666,0.8584   C127.99707,68.24463,128.92627,68.28564,129.84766,68.34229c-0.03857,0.01123-1.0249,0.15723-0.97803,0.08301   C128.9873,68.23975,129.69727,68.33301,129.84766,68.34229C128.4082,68.75439,128.45068,68.25635,129.84766,68.34229z    M54.79004,150.3501l-0.02441-0.35938l0.04736-0.3457l0.12012-0.3418l0.19189-0.37695l0.23975-0.35547l0.36279-0.36523   l0.34131-0.26172l0.44043-0.25l0.42236-0.19727l0.42578-0.12695l0.55322-0.04102l0.41504,0.06836l0.39502,0.14453l0.36084,0.28711   l0.21582,0.32227l0.06982,0.35938l-0.14307,0.3418l-0.34668,0.24805l-0.42969,0.04883h-0.26514v0.33398l-0.00342,0.31445   l-0.1001,0.29688l-0.24902,0.25586l-0.23145,0.13867l-0.38184,0.05469l-0.53076-0.00781l-0.04443,0.38281l-0.07861,0.25195   l-0.10742,0.22461l-0.27393,0.20703l-0.43066,0.06055l-0.40088-0.21875l-0.25879-0.24805l-0.21826-0.3418L54.79004,150.3501   L54.79004,150.3501z M156.61377,156.68994l-0.35596,0.08008l-0.34424-0.00586l-0.35791-0.06836l-0.39844-0.14062l-0.3833-0.18555   l-0.41309-0.31055l-0.31006-0.30078l-0.30713-0.40039l-0.25537-0.38867l-0.18408-0.41016l-0.11523-0.53516l0.00781-0.42578   l0.08496-0.4082l0.23682-0.39648l0.2876-0.25977l0.34619-0.12305l0.36328,0.09375l0.28467,0.31055l0.11621,0.42578l0.03174,0.25781   l0.33936-0.04883l0.30762-0.03711l0.30762,0.05859l0.28809,0.20508l0.16895,0.20898l0.10547,0.37109l0.0625,0.5293l0.39111-0.00781   l0.25635,0.04492l0.23828,0.07422l0.24707,0.24023l0.11426,0.41992l-0.15479,0.42383l-0.21143,0.29492l-0.30859,0.26172   L156.61377,156.68994L156.61377,156.68994z M164.78125,69.7959l-0.01514,0.3584l-0.08252,0.33643l-0.15771,0.33105   l-0.22949,0.35156l-0.27246,0.33154l-0.39893,0.32178l-0.37061,0.22852l-0.46289,0.20117l-0.43848,0.15381l-0.43848,0.07959   l-0.55322-0.01709l-0.40771-0.11328l-0.37646-0.17969l-0.32617-0.3252l-0.18262-0.34326l-0.03369-0.36475l0.17773-0.33008   l0.36768-0.20508l0.43604-0.0083l0.26416,0.03467l0.03613-0.33496l0.0332-0.31738l0.13086-0.28223l0.27393-0.23047l0.24512-0.11133   l0.38525-0.01123l0.5293,0.06543l0.08496-0.38135l0.10596-0.23926l0.12402-0.20996l0.2959-0.18164l0.43555-0.01123l0.37842,0.25537   l0.22852,0.27197l0.18066,0.37012L164.78125,69.7959L164.78125,69.7959z M79.38672,139.49072l-0.9248-2.12891l4.60107-0.4375   l-0.50977,2.26758 M82.58936,139.01807l2.12695-0.92188l0.43506,4.5957l-2.26123-0.50977 M82.78711,142.05713l0.9248,2.13281   l-4.59668,0.43164l0.50537-2.26758 M79.62061,142.49268l-2.13037,0.92773l-0.43652-4.59961l2.26514,0.50391 M112.14453,149.58643   l0.99707,2.0957l-4.58203,0.59766l0.43066-2.28125 M108.9585,150.17236l-2.0957,0.99805l-0.5957-4.58008l2.28125,0.42578    M108.65479,147.14697l-0.99707-2.10156l4.58105-0.5918l-0.43018,2.2793 M111.80859,146.59424l2.09521-0.99609l0.5957,4.57812   l-2.28467-0.42773 M134.15527,139.00244l0.99707,2.0957l-4.58252,0.5957l0.42676-2.2793 M130.9707,139.58447l-2.09814,1   l-0.35449-2.73047 M135.65332,135.94971l0.85449,3.64062l-2.28271-0.42383"/>
	<text transform="matrix(1 0 0 1 204.3877 83.24512)" font-family="'Times-Roman','Liberation Serif'" font-size="36">UNIVERSIT</text>
	<text transform="matrix(1 0 0 1 204.66992 121.43408)" font-family="'Times-Roman','Liberation Serif'" font-size="36">DEGLI STUDI</text>
	<text transform="matrix(1 0 0 1 204.95801 159.05127)" font-family="'Times-Roman','Liberation Serif'" font-size="36">DI TORINO</text>
</g>
</svg>
